<?xml version="1.0" encoding="UTF-8"?>
<svg xmlns="http://www.w3.org/2000/svg" xmlns:xlink="http://www.w3.org/1999/xlink" width="209pt" height="153pt" viewBox="0 0 209 153" version="1.1">
<g id="surface1">
<path style=" stroke:none;fill-rule:evenodd;fill:rgb(72.851563%,85.9375%,49.021912%);fill-opacity:1;" d="M 182.28125 66.148438 C 185.835938 67.078125 187.289063 70.242188 189.792969 65.207031 C 193.480469 57.789063 189.910156 56.632813 192.019531 53.261719 C 192.246094 48.601563 194.960938 49.902344 193.128906 45.960938 C 191.539063 44.027344 185.730469 45.003906 182.582031 43.894531 L 176.070313 42.066406 C 171.214844 40.390625 166.730469 36.945313 160.976563 36.292969 C 157.832031 35.9375 151.679688 33.871094 149.097656 32.683594 C 147.671875 32.027344 147.390625 31.625 145.773438 30.765625 C 142.90625 29.234375 141.476563 28.546875 137.855469 27.964844 C 132.703125 27.136719 133.714844 26.773438 130.101563 25.191406 L 127.882813 47.082031 C 130.761719 47.289063 134.207031 47.082031 136.019531 48.273438 C 141.816406 52.085938 135.058594 53.890625 148.460938 53.824219 C 152.832031 53.804688 152.601563 54.425781 155.546875 56.085938 C 167.761719 62.976563 160.839844 57.921875 168.933594 61.109375 C 170.808594 61.847656 181.59375 65.128906 182.28125 66.148438 "/>
<path style=" stroke:none;fill-rule:evenodd;fill:rgb(1.177979%,56.834412%,23.925781%);fill-opacity:1;" d="M 130.667969 20.902344 C 132.988281 22.488281 136.082031 22.351563 138.847656 23.378906 C 149.351563 27.273438 147.863281 28.78125 162.625 31.644531 C 169.972656 33.070313 167.085938 35.925781 177.660156 38.152344 C 188.488281 40.433594 190.101563 42.933594 193.722656 44.1875 C 193.820313 44.074219 193.960938 43.734375 193.996094 43.828125 L 194.921875 42.316406 C 196.261719 39.246094 195.308594 35.59375 195.464844 32.210938 C 195.832031 24.355469 202.921875 23.679688 173.25 15.753906 C 168.382813 14.453125 167.085938 14.164063 163.574219 11.71875 C 153.007813 4.347656 153.554688 9.769531 143.84375 4.019531 C 141.796875 2.808594 135.363281 0.324219 133.039063 0.703125 C 132.699219 4.679688 132.953125 7.691406 131.828125 10.828125 C 130.6875 14.015625 130.398438 16.847656 130.667969 20.902344 "/>
<path style=" stroke:none;fill-rule:evenodd;fill:rgb(89.0625%,39.988708%,7.835388%);fill-opacity:1;" d="M 119.40625 27.804688 C 116.90625 31.421875 112.421875 30.980469 109.648438 32.242188 C 108.113281 32.941406 106.789063 34.039063 104.851563 34.640625 C 102.546875 35.359375 101.9375 35.664063 100.042969 36.28125 C 94.566406 38.066406 95.820313 40.085938 91.632813 41.640625 C 89.878906 42.289063 88.050781 42.578125 86.496094 43.058594 C 84.558594 43.65625 83.699219 44.363281 81.582031 45.074219 C 75.527344 51.152344 72.183594 40.164063 72.207031 69.261719 C 83.945313 69.453125 82.542969 67.003906 85.824219 64.996094 C 87.265625 64.113281 88.785156 63.96875 90.171875 63.398438 C 97.839844 60.226563 99.402344 55.40625 112.703125 55.367188 C 116.488281 55.355469 114.445313 55.144531 117.222656 54.0625 C 121.863281 52.257813 121.746094 53.605469 122.324219 47.222656 C 123.054688 39.164063 126.425781 34.484375 124.820313 25.972656 C 122.21875 25.542969 122.164063 27.488281 119.40625 27.804688 "/>
<path style=" stroke:none;fill-rule:evenodd;fill:rgb(12.939453%,10.984802%,9.812927%);fill-opacity:1;" d="M 0.488281 130.125 C 4.035156 130.105469 3.585938 130.257813 5.097656 129.566406 C 7.042969 120.890625 6.675781 96.847656 6.386719 87.300781 C 8.128906 88.480469 25.121094 116.042969 28.554688 121.707031 C 30.472656 124.878906 34.011719 131.765625 38.292969 130.15625 C 41.28125 127.863281 40.207031 121.722656 40.292969 118.023438 C 40.5 109.285156 41.847656 82.582031 40.898438 77.214844 C 33.960938 76.953125 36.285156 76.363281 35.84375 97.1875 C 35.746094 101.851563 36.070313 119.851563 34.847656 122.429688 C 33.496094 119.722656 29.355469 113.667969 27.507813 110.832031 C 24.789063 106.667969 22.746094 103.050781 20.15625 98.5 L 12.5625 86.449219 C 9.824219 81.703125 7.238281 76.453125 2.582031 77.136719 C -0.152344 81.363281 2.128906 96.15625 1.863281 103.148438 C 1.53125 112.046875 0.488281 121.597656 0.488281 130.125 "/>
<path style=" stroke:none;fill-rule:evenodd;fill:rgb(12.939453%,10.984802%,9.812927%);fill-opacity:1;" d="M 101.453125 82.871094 C 108.574219 81.65625 129.621094 80.570313 125.621094 90.984375 C 123.390625 96.800781 107.40625 101.773438 105.027344 103.742188 C 108.457031 109.292969 115.324219 114.082031 119.824219 118.640625 L 134.859375 133.289063 L 137.800781 130.5625 C 136.769531 127.167969 128.675781 120.175781 126.066406 117.757813 C 122.941406 114.855469 115.519531 108.636719 113.671875 105.222656 C 121.363281 102.050781 136.164063 94.828125 129.203125 83.039063 C 124.285156 74.707031 106.613281 76.921875 96.460938 78 C 95.667969 81.105469 96.238281 110.90625 96.304688 118.046875 C 96.363281 124.84375 94.589844 125.957031 101.289063 125.554688 L 101.453125 82.871094 "/>
<path style=" stroke:none;fill-rule:evenodd;fill:rgb(12.939453%,10.984802%,9.812927%);fill-opacity:1;" d="M 171.996094 102.195313 L 171.871094 83.265625 L 166.910156 83.222656 L 166.664063 126.96875 L 171.640625 127.054688 L 171.742188 108.003906 C 176.289063 106.152344 190.042969 103.34375 195.609375 102.871094 L 196.503906 132.359375 L 201.320313 132.179688 L 200.519531 101.585938 L 208.285156 99.878906 L 207.4375 95.011719 L 201.042969 96.144531 L 201.601563 82.371094 L 196.726563 82.136719 C 196.542969 85.835938 196.203125 89.375 196.011719 93.058594 C 195.710938 98.726563 195.785156 97.546875 190.242188 98.527344 C 186.199219 99.242188 174.777344 102.269531 171.996094 102.195313 "/>
<path style=" stroke:none;fill-rule:evenodd;fill:rgb(12.939453%,10.984802%,9.812927%);fill-opacity:1;" d="M 130.871094 77.527344 L 130.753906 82.257813 L 135.953125 82.054688 L 149.351563 81.792969 L 148.902344 123.992188 L 153.828125 123.996094 C 154.265625 117.832031 153.109375 84.136719 154.585938 82.007813 C 155.59375 80.839844 156.214844 81.1875 159.632813 80.898438 C 165.722656 80.386719 170.335938 79.542969 177.054688 79.277344 L 177.375 74.359375 L 130.871094 77.527344 "/>
<path style=" stroke:none;fill-rule:evenodd;fill:rgb(85.15625%,14.892578%,10.984802%);fill-opacity:1;" d="M 105.917969 30.929688 C 107.828125 30.289063 109.691406 29.976563 111.476563 29.242188 C 113.894531 28.238281 114.183594 27.359375 116.023438 26.441406 C 116.613281 24.859375 117.835938 23.550781 119.496094 23.128906 C 123.761719 22.042969 121.746094 23.671875 125.109375 20.976563 C 126.257813 14.378906 123.53125 12.390625 123.863281 6.605469 C 124.519531 4.003906 125.304688 3.757813 124.945313 0.296875 C 121.847656 2.808594 118.492188 5.09375 113.246094 5.921875 C 105.921875 7.074219 106.496094 10.269531 101.949219 12.574219 C 99.25 13.945313 97.054688 13.410156 94.816406 14.441406 C 92.5 15.507813 90.675781 18.800781 83.835938 21.289063 C 82.335938 21.832031 78.757813 23.097656 77.59375 23.882813 L 77.726563 32.859375 C 78.296875 37.140625 74.589844 38.269531 76.03125 42.015625 C 76.183594 42.085938 76.410156 42.046875 76.492188 42.226563 C 76.792969 42.886719 79.175781 41.882813 79.6875 41.621094 C 81.886719 40.492188 81.269531 39.914063 84.316406 40.402344 C 85.625 40.398438 92.960938 36.6875 94.628906 35.605469 C 97.753906 33.574219 101.75 32.679688 105.917969 30.929688 "/>
<path style=" stroke:none;fill-rule:evenodd;fill:rgb(1.177979%,56.834412%,23.925781%);fill-opacity:1;" d="M 69.964844 82.167969 L 65 82.796875 C 65.082031 84.84375 65.632813 86.671875 66.324219 88.007813 L 75.65625 87.734375 C 87.351563 91.582031 90.023438 102.15625 87.160156 112.726563 C 84.644531 122.011719 72.785156 127.847656 60.867188 123.398438 C 45.679688 117.726563 38.019531 82.96875 72.894531 79.664063 L 72.542969 74.773438 C 58.1875 73.53125 45.613281 84.804688 43.753906 96.695313 C 41.125 113.484375 49.308594 125.96875 62.214844 129.160156 C 78.03125 133.074219 90.792969 124.449219 92.910156 110.195313 C 94.152344 101.835938 91.824219 94.671875 88.019531 89.648438 C 83.722656 83.972656 78.542969 82.402344 69.964844 82.167969 "/>
<path style=" stroke:none;fill-rule:evenodd;fill:rgb(92.89856%,10.998535%,14.099121%);fill-opacity:1;" d="M 0.0507813 139.707031 L 208.71875 139.707031 L 208.71875 152.929688 L 0.0507813 152.929688 L 0.0507813 139.707031 "/>
<path style=" stroke:none;fill-rule:nonzero;fill:rgb(100%,100%,100%);fill-opacity:1;" d="M 2.796875 147.855469 C 3.144531 148.25 3.492188 148.546875 3.832031 148.742188 C 4.171875 148.941406 4.507813 149.039063 4.847656 149.039063 C 5.160156 149.039063 5.417969 148.953125 5.621094 148.785156 C 5.824219 148.617188 5.925781 148.402344 5.925781 148.144531 C 5.925781 147.855469 5.839844 147.636719 5.664063 147.480469 C 5.488281 147.324219 5.09375 147.164063 4.476563 147 C 3.632813 146.773438 3.035156 146.476563 2.683594 146.109375 C 2.335938 145.746094 2.160156 145.242188 2.160156 144.609375 C 2.160156 143.785156 2.4375 143.109375 2.988281 142.589844 C 3.539063 142.070313 4.253906 141.808594 5.132813 141.808594 C 5.609375 141.808594 6.0625 141.875 6.488281 142 C 6.914063 142.128906 7.316406 142.324219 7.699219 142.582031 L 6.960938 144.273438 C 6.695313 144.046875 6.421875 143.871094 6.140625 143.757813 C 5.859375 143.640625 5.582031 143.582031 5.308594 143.582031 C 5.023438 143.582031 4.792969 143.652344 4.617188 143.785156 C 4.441406 143.921875 4.351563 144.09375 4.351563 144.308594 C 4.351563 144.523438 4.429688 144.699219 4.585938 144.824219 C 4.738281 144.957031 5.039063 145.078125 5.480469 145.199219 L 5.589844 145.226563 C 6.546875 145.484375 7.175781 145.769531 7.480469 146.082031 C 7.683594 146.292969 7.839844 146.546875 7.945313 146.84375 C 8.050781 147.140625 8.105469 147.46875 8.105469 147.832031 C 8.105469 148.746094 7.804688 149.480469 7.203125 150.035156 C 6.601563 150.59375 5.800781 150.871094 4.800781 150.871094 C 4.199219 150.871094 3.652344 150.769531 3.160156 150.566406 C 2.667969 150.359375 2.191406 150.039063 1.734375 149.605469 L 2.796875 147.855469 "/>
<path style=" stroke:none;fill-rule:nonzero;fill:rgb(100%,100%,100%);fill-opacity:1;" d="M 29.414063 150.640625 L 29.414063 142.015625 L 31.765625 142.015625 L 31.765625 145.367188 L 34.898438 145.367188 L 34.898438 142.015625 L 37.253906 142.015625 L 37.253906 150.640625 L 34.898438 150.640625 L 34.898438 147.128906 L 31.765625 147.128906 L 31.765625 150.640625 L 29.414063 150.640625 "/>
<path style=" stroke:none;fill-rule:nonzero;fill:rgb(100%,100%,100%);fill-opacity:1;" d="M 67.933594 146.347656 C 67.933594 146.96875 67.816406 147.550781 67.589844 148.089844 C 67.363281 148.632813 67.03125 149.117188 66.59375 149.546875 C 66.15625 149.96875 65.652344 150.296875 65.085938 150.527344 C 64.523438 150.757813 63.933594 150.871094 63.324219 150.871094 C 62.707031 150.871094 62.117188 150.757813 61.554688 150.527344 C 60.988281 150.296875 60.496094 149.96875 60.066406 149.546875 C 59.621094 149.117188 59.285156 148.628906 59.054688 148.082031 C 58.828125 147.539063 58.710938 146.960938 58.710938 146.347656 C 58.710938 145.730469 58.828125 145.148438 59.054688 144.605469 C 59.285156 144.0625 59.621094 143.574219 60.066406 143.148438 C 60.496094 142.722656 60.988281 142.398438 61.554688 142.164063 C 62.117188 141.9375 62.707031 141.820313 63.324219 141.820313 C 63.9375 141.820313 64.527344 141.9375 65.09375 142.164063 C 65.664063 142.398438 66.164063 142.722656 66.59375 143.148438 C 67.027344 143.570313 67.355469 144.054688 67.589844 144.601563 C 67.816406 145.148438 67.933594 145.730469 67.933594 146.347656 Z M 63.324219 148.878906 C 63.976563 148.878906 64.515625 148.640625 64.941406 148.164063 C 65.367188 147.679688 65.582031 147.074219 65.582031 146.347656 C 65.582031 145.625 65.367188 145.019531 64.933594 144.535156 C 64.5 144.054688 63.964844 143.8125 63.324219 143.8125 C 62.671875 143.8125 62.136719 144.054688 61.707031 144.535156 C 61.28125 145.015625 61.070313 145.621094 61.070313 146.347656 C 61.070313 147.085938 61.277344 147.691406 61.699219 148.167969 C 62.117188 148.644531 62.660156 148.878906 63.324219 148.878906 "/>
<path style=" stroke:none;fill-rule:nonzero;fill:rgb(100%,100%,100%);fill-opacity:1;" d="M 91.601563 150.640625 L 89.394531 150.640625 L 89.394531 142.015625 L 91.851563 142.015625 C 92.816406 142.015625 93.488281 142.0625 93.878906 142.15625 C 94.269531 142.253906 94.597656 142.414063 94.871094 142.640625 C 95.1875 142.902344 95.429688 143.234375 95.597656 143.628906 C 95.765625 144.023438 95.847656 144.460938 95.847656 144.945313 C 95.847656 145.460938 95.765625 145.910156 95.601563 146.300781 C 95.433594 146.695313 95.191406 147.015625 94.871094 147.265625 C 94.625 147.453125 94.339844 147.589844 94.007813 147.671875 C 93.679688 147.753906 93.152344 147.796875 92.425781 147.796875 L 91.601563 147.796875 Z M 91.601563 145.898438 L 92.046875 145.898438 C 92.613281 145.898438 93.007813 145.820313 93.230469 145.667969 C 93.453125 145.511719 93.566406 145.25 93.566406 144.875 C 93.566406 144.511719 93.457031 144.253906 93.238281 144.101563 C 93.019531 143.949219 92.628906 143.871094 92.070313 143.871094 L 91.601563 143.871094 L 91.601563 145.898438 "/>
<path style=" stroke:none;fill-rule:nonzero;fill:rgb(100%,100%,100%);fill-opacity:1;" d="M 119.238281 150.640625 L 117.03125 150.640625 L 117.03125 142.015625 L 119.492188 142.015625 C 120.453125 142.015625 121.128906 142.0625 121.519531 142.15625 C 121.90625 142.253906 122.234375 142.414063 122.507813 142.640625 C 122.824219 142.902344 123.066406 143.234375 123.234375 143.628906 C 123.402344 144.023438 123.484375 144.460938 123.484375 144.945313 C 123.484375 145.460938 123.402344 145.910156 123.238281 146.300781 C 123.070313 146.695313 122.828125 147.015625 122.507813 147.265625 C 122.265625 147.453125 121.976563 147.589844 121.644531 147.671875 C 121.316406 147.753906 120.789063 147.796875 120.0625 147.796875 L 119.238281 147.796875 Z M 119.238281 145.898438 L 119.6875 145.898438 C 120.25 145.898438 120.644531 145.820313 120.867188 145.667969 C 121.089844 145.511719 121.203125 145.25 121.203125 144.875 C 121.203125 144.511719 121.09375 144.253906 120.875 144.101563 C 120.65625 143.949219 120.265625 143.871094 119.707031 143.871094 L 119.238281 143.871094 L 119.238281 145.898438 "/>
<path style=" stroke:none;fill-rule:nonzero;fill:rgb(100%,100%,100%);fill-opacity:1;" d="M 144.730469 150.640625 L 144.730469 142.015625 L 147.105469 142.015625 L 147.105469 150.640625 L 144.730469 150.640625 "/>
<path style=" stroke:none;fill-rule:nonzero;fill:rgb(100%,100%,100%);fill-opacity:1;" d="M 168.988281 150.640625 L 168.988281 142.015625 L 171.257813 142.015625 L 174.515625 146.453125 C 174.578125 146.542969 174.679688 146.722656 174.824219 147 C 174.96875 147.269531 175.125 147.59375 175.296875 147.972656 C 175.253906 147.613281 175.21875 147.296875 175.195313 147.019531 C 175.171875 146.742188 175.164063 146.492188 175.164063 146.277344 L 175.164063 142.015625 L 177.421875 142.015625 L 177.421875 150.640625 L 175.164063 150.640625 L 171.90625 146.1875 C 171.839844 146.097656 171.734375 145.917969 171.589844 145.640625 C 171.445313 145.367188 171.292969 145.050781 171.121094 144.679688 C 171.167969 145.042969 171.203125 145.359375 171.226563 145.640625 C 171.246094 145.917969 171.257813 146.164063 171.257813 146.382813 L 171.257813 150.640625 L 168.988281 150.640625 "/>
<path style=" stroke:none;fill-rule:nonzero;fill:rgb(100%,100%,100%);fill-opacity:1;" d="M 203.355469 147.464844 L 203.355469 145.65625 L 207.976563 145.65625 C 207.980469 145.714844 207.984375 145.78125 207.988281 145.851563 C 207.988281 145.921875 207.988281 146.027344 207.988281 146.164063 C 207.988281 147.648438 207.597656 148.800781 206.8125 149.621094 C 206.03125 150.4375 204.929688 150.847656 203.507813 150.847656 C 202.804688 150.847656 202.183594 150.746094 201.640625 150.53125 C 201.097656 150.324219 200.609375 150.003906 200.183594 149.570313 C 199.773438 149.15625 199.457031 148.667969 199.230469 148.105469 C 199.003906 147.542969 198.894531 146.953125 198.894531 146.335938 C 198.894531 145.691406 199.003906 145.101563 199.222656 144.558594 C 199.441406 144.019531 199.769531 143.53125 200.207031 143.101563 C 200.640625 142.679688 201.136719 142.363281 201.695313 142.144531 C 202.253906 141.929688 202.855469 141.820313 203.507813 141.820313 C 204.351563 141.820313 205.097656 141.988281 205.746094 142.324219 C 206.394531 142.65625 206.941406 143.152344 207.386719 143.8125 L 205.347656 144.789063 C 205.105469 144.457031 204.832031 144.207031 204.527344 144.046875 C 204.222656 143.882813 203.882813 143.800781 203.507813 143.800781 C 202.800781 143.800781 202.25 144.035156 201.84375 144.503906 C 201.441406 144.976563 201.238281 145.617188 201.238281 146.429688 C 201.238281 147.25 201.441406 147.898438 201.84375 148.367188 C 202.25 148.839844 202.800781 149.074219 203.507813 149.074219 C 204.101563 149.074219 204.601563 148.929688 204.996094 148.636719 C 205.398438 148.34375 205.628906 147.953125 205.695313 147.464844 L 203.355469 147.464844 "/>
</g>
</svg>
