<?xml version="1.0" encoding="UTF-8"?>
<svg xmlns="http://www.w3.org/2000/svg" xmlns:xlink="http://www.w3.org/1999/xlink" width="193pt" height="193pt" viewBox="0 0 193 193" version="1.1">
<g id="surface1">
<path style=" stroke:none;fill-rule:evenodd;fill:rgb(100%,100%,100%);fill-opacity:1;" d="M 0 0.242188 L 192.757813 0.242188 L 192.757813 193 L 0 193 L 0 0.242188 "/>
<path style=" stroke:none;fill-rule:evenodd;fill:rgb(100%,100%,100%);fill-opacity:1;" d="M 96.378906 10.613281 L 165.839844 10.613281 C 175.964844 10.613281 184.253906 18.695313 184.253906 28.621094 L 184.253906 164.625 C 184.253906 174.597656 175.964844 182.628906 165.839844 182.628906 L 26.917969 182.628906 C 16.738281 182.628906 8.503906 174.597656 8.503906 164.625 L 8.503906 28.621094 C 8.503906 18.695313 16.738281 10.613281 26.917969 10.613281 L 96.378906 10.613281 "/>
<path style=" stroke:none;fill-rule:evenodd;fill:rgb(0%,32.499695%,62.69989%);fill-opacity:1;" d="M 182.308594 134.703125 L 162.257813 111.070313 L 162.257813 154.90625 C 162.257813 159.253906 158.675781 162.730469 154.277344 162.730469 L 36.429688 162.730469 C 32.03125 162.730469 28.453125 159.253906 28.453125 154.90625 L 28.453125 39.566406 C 28.453125 35.21875 32.03125 31.738281 36.429688 31.738281 L 154.277344 31.738281 C 158.675781 31.738281 162.257813 35.21875 162.257813 39.566406 L 162.257813 73.785156 L 172.28125 73.785156 L 172.28125 39.566406 C 172.28125 29.796875 164.203125 21.917969 154.277344 21.917969 L 36.429688 21.917969 C 26.507813 21.917969 18.425781 29.796875 18.425781 39.566406 L 18.425781 154.90625 C 18.425781 164.675781 26.507813 172.550781 36.429688 172.550781 L 154.277344 172.550781 C 164.203125 172.550781 172.28125 164.675781 172.28125 154.90625 L 172.28125 134.703125 L 182.308594 134.703125 "/>
<path style=" stroke:none;fill-rule:evenodd;fill:rgb(88.598633%,88.198853%,88.198853%);fill-opacity:1;" d="M 160.261719 73.785156 L 160.261719 39.566406 C 160.261719 36.34375 157.550781 33.683594 154.277344 33.683594 L 36.429688 33.683594 C 33.15625 33.683594 30.445313 36.34375 30.445313 39.566406 L 30.445313 154.90625 C 30.445313 158.128906 33.15625 160.789063 36.429688 160.789063 L 154.277344 160.789063 C 157.550781 160.789063 160.261719 158.128906 160.261719 154.90625 L 160.261719 111.121094 L 140.214844 134.703125 L 150.238281 134.703125 L 150.238281 147.847656 C 150.238281 149.585938 148.804688 150.96875 147.066406 150.96875 L 43.644531 150.96875 C 41.90625 150.96875 40.472656 149.585938 40.472656 147.847656 L 40.472656 46.625 C 40.472656 44.886719 41.90625 43.503906 43.644531 43.503906 L 147.066406 43.503906 C 148.804688 43.503906 150.238281 44.886719 150.238281 46.625 L 150.238281 73.785156 L 160.261719 73.785156 "/>
<path style=" stroke:none;fill-rule:evenodd;fill:rgb(13.699341%,12.199402%,12.5%);fill-opacity:1;" d="M 63.539063 131.378906 C 64 131.992188 64.71875 132.605469 65.535156 132.605469 C 65.945313 132.605469 66.457031 132.347656 66.457031 131.839844 C 66.457031 131.582031 66.351563 131.378906 66.199219 131.222656 C 66.046875 131.070313 65.894531 130.917969 65.6875 130.816406 C 65.074219 130.355469 64.5625 129.894531 64.152344 129.382813 C 63.746094 128.871094 63.539063 128.207031 63.539063 127.386719 C 63.539063 126.058594 64.359375 123.707031 67.019531 123.707031 C 67.785156 123.707031 68.605469 123.910156 69.21875 124.269531 L 69.21875 127.695313 C 68.859375 127.132813 68.144531 126.46875 67.425781 126.46875 C 67.019531 126.46875 66.609375 126.722656 66.609375 127.132813 C 66.609375 127.386719 66.761719 127.59375 66.914063 127.796875 C 67.070313 127.949219 67.324219 128.105469 67.480469 128.257813 C 68.144531 128.71875 68.65625 129.128906 69.011719 129.640625 C 69.371094 130.152344 69.574219 130.714844 69.574219 131.582031 C 69.574219 133.679688 68.042969 135.367188 65.894531 135.367188 C 65.125 135.367188 64.308594 135.164063 63.539063 134.90625 L 63.539063 131.378906 "/>
<path style=" stroke:none;fill-rule:evenodd;fill:rgb(13.699341%,12.199402%,12.5%);fill-opacity:1;" d="M 75.046875 135.164063 L 75.046875 130.558594 L 73.566406 130.558594 L 73.566406 135.164063 L 70.445313 135.164063 L 70.445313 123.910156 L 73.566406 123.910156 L 73.566406 127.898438 L 75.046875 127.898438 L 75.046875 123.910156 L 78.167969 123.910156 L 78.167969 135.164063 L 75.046875 135.164063 "/>
<path style=" stroke:none;fill-rule:evenodd;fill:rgb(13.699341%,12.199402%,12.5%);fill-opacity:1;" d="M 105.328125 135.164063 L 108.449219 135.164063 L 108.449219 123.910156 L 105.328125 123.910156 L 105.328125 135.164063 "/>
<path style=" stroke:none;fill-rule:evenodd;fill:rgb(13.699341%,12.199402%,12.5%);fill-opacity:1;" d="M 109.675781 123.910156 L 112.644531 123.910156 L 115.097656 130.660156 L 115.148438 130.660156 C 115.046875 129.332031 114.789063 128.054688 114.789063 126.773438 L 114.789063 123.910156 L 117.808594 123.910156 L 117.808594 135.164063 L 114.789063 135.164063 L 112.488281 128.667969 L 112.4375 128.667969 C 112.539063 129.742188 112.644531 130.765625 112.644531 131.839844 L 112.644531 135.164063 L 109.675781 135.164063 L 109.675781 123.910156 "/>
<path style=" stroke:none;fill-rule:evenodd;fill:rgb(13.699341%,12.199402%,12.5%);fill-opacity:1;" d="M 127.324219 128.617188 L 127.324219 129.128906 C 127.324219 131.890625 126.761719 135.367188 123.179688 135.367188 C 119.753906 135.367188 118.679688 132.453125 118.679688 129.585938 C 118.679688 126.773438 119.753906 123.707031 123.128906 123.707031 C 124.96875 123.707031 126.402344 124.832031 127.066406 126.46875 L 124.050781 127.542969 C 123.996094 127.132813 123.691406 126.417969 123.179688 126.417969 C 121.746094 126.417969 121.851563 128.972656 121.851563 129.84375 C 121.902344 130.660156 121.851563 132.605469 123.027344 132.605469 C 123.84375 132.605469 124.101563 131.683594 124.101563 131.019531 L 122.976563 131.019531 L 122.976563 128.617188 L 127.324219 128.617188 "/>
<path style=" stroke:none;fill-rule:evenodd;fill:rgb(13.699341%,12.199402%,12.5%);fill-opacity:1;" d="M 88.707031 135.164063 L 88.707031 123.910156 L 91.570313 123.910156 C 94.28125 123.910156 96.378906 124.78125 96.378906 127.695313 C 96.378906 130.660156 94.535156 131.53125 91.824219 131.480469 L 91.824219 135.164063 Z M 92.082031 126.3125 L 91.824219 126.3125 L 91.824219 128.921875 C 92.695313 128.972656 93.207031 128.515625 93.207031 127.644531 C 93.207031 126.925781 92.847656 126.3125 92.082031 126.3125 "/>
<path style=" stroke:none;fill-rule:evenodd;fill:rgb(13.699341%,12.199402%,12.5%);fill-opacity:1;" d="M 100.367188 126.3125 L 100.164063 126.3125 L 100.164063 128.921875 C 100.980469 128.972656 101.542969 128.515625 101.542969 127.644531 C 101.542969 126.925781 101.136719 126.3125 100.367188 126.3125 Z M 97.042969 135.164063 L 97.042969 123.910156 L 99.855469 123.910156 C 102.566406 123.910156 104.664063 124.78125 104.664063 127.695313 C 104.664063 130.660156 102.824219 131.53125 100.164063 131.480469 L 100.164063 135.164063 L 97.042969 135.164063 "/>
<path style=" stroke:none;fill-rule:evenodd;fill:rgb(13.699341%,12.199402%,12.5%);fill-opacity:1;" d="M 83.4375 132.503906 C 84.613281 132.503906 84.664063 130.253906 84.664063 129.535156 C 84.664063 128.820313 84.613281 126.570313 83.4375 126.570313 C 82.261719 126.570313 82.210938 128.820313 82.210938 129.535156 C 82.210938 130.253906 82.261719 132.503906 83.4375 132.503906 Z M 83.4375 123.707031 C 86.609375 123.707031 87.835938 126.773438 87.835938 129.535156 C 87.835938 132.296875 86.609375 135.367188 83.4375 135.367188 C 80.265625 135.367188 79.039063 132.296875 79.039063 129.535156 C 79.039063 126.773438 80.265625 123.707031 83.4375 123.707031 "/>
<path style=" stroke:none;fill-rule:evenodd;fill:rgb(13.699341%,12.199402%,12.5%);fill-opacity:1;" d="M 56.328125 120.226563 L 56.328125 88.925781 L 71.621094 88.925781 L 71.621094 96.289063 L 64.972656 96.289063 L 64.972656 100.789063 L 71.160156 100.789063 L 71.160156 108.207031 L 64.972656 108.207031 L 64.972656 120.226563 L 56.328125 120.226563 "/>
<path style=" stroke:none;fill-rule:evenodd;fill:rgb(13.699341%,12.199402%,12.5%);fill-opacity:1;" d="M 98.832031 88.925781 L 114.945313 88.925781 L 114.945313 96.289063 L 107.527344 96.289063 L 107.527344 100.636719 L 114.179688 100.636719 L 114.179688 108.054688 L 107.527344 108.054688 L 107.527344 112.808594 L 114.945313 112.808594 L 114.945313 120.226563 L 98.832031 120.226563 L 98.832031 88.925781 "/>
<path style=" stroke:none;fill-rule:evenodd;fill:rgb(13.699341%,12.199402%,12.5%);fill-opacity:1;" d="M 118.320313 88.925781 L 134.382813 88.925781 L 134.382813 96.289063 L 126.964844 96.289063 L 126.964844 100.636719 L 133.613281 100.636719 L 133.613281 108.054688 L 126.964844 108.054688 L 126.964844 112.808594 L 134.382813 112.808594 L 134.382813 120.226563 L 118.320313 120.226563 L 118.320313 88.925781 "/>
<path style=" stroke:none;fill-rule:evenodd;fill:rgb(13.699341%,12.199402%,12.5%);fill-opacity:1;" d="M 88.347656 120.226563 L 83.539063 107.183594 C 83.488281 108.769531 83.589844 110.304688 83.589844 111.839844 L 83.589844 120.226563 L 74.945313 120.226563 L 74.945313 88.925781 L 83.285156 88.925781 C 90.800781 88.925781 96.222656 91.070313 96.222656 99.308594 C 96.222656 102.785156 94.691406 105.855469 91.261719 107.183594 L 97.707031 120.226563 Z M 84.152344 103.398438 C 86.457031 103.398438 87.683594 101.457031 87.683594 99.410156 C 87.683594 96.648438 85.996094 95.523438 83.589844 95.625 L 83.589844 103.347656 L 84.152344 103.398438 "/>
<path style=" stroke:none;fill-rule:evenodd;fill:rgb(13.699341%,12.199402%,12.5%);fill-opacity:1;" d="M 67.53125 85.90625 L 67.53125 62.222656 L 62.773438 62.222656 L 62.773438 54.601563 L 81.136719 54.601563 L 81.136719 62.222656 L 76.171875 62.222656 L 76.171875 85.90625 L 67.53125 85.90625 "/>
<path style=" stroke:none;fill-rule:evenodd;fill:rgb(13.699341%,12.199402%,12.5%);fill-opacity:1;" d="M 118.679688 85.90625 L 116.941406 81.046875 C 116.582031 79.871094 116.222656 78.644531 115.917969 77.519531 L 115.8125 77.519531 C 115.457031 78.644531 115.148438 79.871094 114.789063 81.046875 L 112.898438 85.90625 L 103.488281 85.90625 L 111.210938 69.640625 L 103.898438 54.601563 L 113.511719 54.601563 L 114.945313 58.335938 C 115.355469 59.511719 115.558594 60.742188 115.917969 61.96875 L 115.96875 61.96875 C 116.273438 60.742188 116.480469 59.5625 116.890625 58.335938 L 118.015625 54.601563 L 127.730469 54.601563 L 120.417969 69.640625 L 128.296875 85.90625 L 118.679688 85.90625 "/>
<path style=" stroke:none;fill-rule:evenodd;fill:rgb(13.699341%,12.199402%,12.5%);fill-opacity:1;" d="M 93.820313 75.214844 L 92.898438 67.953125 C 92.644531 66.007813 92.492188 64.015625 92.285156 62.070313 C 91.929688 64.015625 91.722656 66.007813 91.367188 67.953125 L 90.1875 75.214844 Z M 95.507813 85.90625 L 94.84375 81.867188 L 89.0625 81.867188 L 88.347656 85.90625 L 79.449219 85.90625 L 87.121094 54.601563 L 97.65625 54.601563 L 104.460938 85.90625 L 95.507813 85.90625 "/>
</g>
</svg>
